<?xml version="1.0" encoding="UTF-8"?>
<svg version="1.1" xmlns="http://www.w3.org/2000/svg" width="287" height="176">
<path d="M0 0 C94.71 0 189.42 0 287 0 C287 58.08 287 116.16 287 176 C192.29 176 97.58 176 0 176 C0 117.92 0 59.84 0 0 Z " fill="#FDFEFE" transform="translate(0,0)"/>
<path d="M0 0 C0.33 -0.66 0.66 -1.32 1 -2 C9.91 -2 18.82 -2 28 -2 C28 25.06 28 52.12 28 80 C19.09 80 10.18 80 1 80 C1 79.01 1 78.02 1 77 C0.27296875 77.2165625 -0.4540625 77.433125 -1.203125 77.65625 C-14.02175841 81.20602541 -23.96540887 81.1022638 -36 75 C-44.9331226 69.53710408 -52.10605521 61.46815215 -55.328125 51.40625 C-57.7775416 38.98827748 -57.20913299 27.90409498 -50.921875 16.84765625 C-39.81089442 0.38443503 -19.04231191 -7.67835158 0 0 Z " fill="#101616" transform="translate(87,62)"/>
<path d="M0 0 C8.25600382 7.0765747 16.27495172 14.41976599 23 23 C26.66752005 21.4608199 28.98580573 19.24514548 31.765625 16.4296875 C32.65507812 15.53378906 33.54453125 14.63789062 34.4609375 13.71484375 C35.38132813 12.77769531 36.30171875 11.84054688 37.25 10.875 C38.19484856 9.92011363 39.14015633 8.96568141 40.0859375 8.01171875 C42.39518338 5.67890913 44.69963203 3.34155914 47 1 C50.15204981 2.39347376 52.26171773 4.02485079 54.671875 6.4765625 C55.33574219 7.146875 55.99960938 7.8171875 56.68359375 8.5078125 C57.70646484 9.55582031 57.70646484 9.55582031 58.75 10.625 C59.44738281 11.33140625 60.14476562 12.0378125 60.86328125 12.765625 C62.58012488 14.50598703 64.29211832 16.25084981 66 18 C64.4608199 21.66752005 62.24514548 23.98580573 59.4296875 26.765625 C58.53378906 27.65507813 57.63789063 28.54453125 56.71484375 29.4609375 C55.77769531 30.38132812 54.84054688 31.30171875 53.875 32.25 C52.92011363 33.19484856 51.96568141 34.14015633 51.01171875 35.0859375 C48.67890913 37.39518338 46.34155914 39.69963203 44 42 C45.81164868 45.96817302 48.38714827 48.41015497 51.625 51.25 C52.70704519 52.2185839 53.7877684 53.18864661 54.8671875 54.16015625 C55.39795898 54.63727051 55.92873047 55.11438477 56.47558594 55.60595703 C59.7681586 58.61694196 62.88737763 61.80498468 66 65 C64.60652624 68.15204981 62.97514921 70.26171773 60.5234375 72.671875 C59.853125 73.33574219 59.1828125 73.99960938 58.4921875 74.68359375 C57.44417969 75.70646484 57.44417969 75.70646484 56.375 76.75 C55.66859375 77.44738281 54.9621875 78.14476563 54.234375 78.86328125 C52.49401297 80.58012488 50.74915019 82.29211832 49 84 C45.9089287 82.61431787 43.70165043 80.99224396 41.25 78.6640625 C40.5590625 78.01179688 39.868125 77.35953125 39.15625 76.6875 C38.4446875 76.006875 37.733125 75.32625 37 74.625 C36.2884375 73.95210938 35.576875 73.27921875 34.84375 72.5859375 C31.51807499 69.43399178 28.21510202 66.26533799 25 63 C21.33247995 64.5391801 19.01419427 66.75485452 16.234375 69.5703125 C15.34492188 70.46621094 14.45546875 71.36210938 13.5390625 72.28515625 C12.15847656 73.69087891 12.15847656 73.69087891 10.75 75.125 C9.80515144 76.07988637 8.85984367 77.03431859 7.9140625 77.98828125 C5.60481662 80.32109087 3.30036797 82.65844086 1 85 C-3.70341126 81.07711742 -8.14273951 76.98981304 -12.4375 72.625 C-13.24864258 71.80708984 -13.24864258 71.80708984 -14.07617188 70.97265625 C-15.38646723 69.65076536 -16.69358284 68.32572382 -18 67 C-13.47008204 61.56266945 -8.65705784 56.53541069 -3.625 51.5625 C-2.52091797 50.46518555 -2.52091797 50.46518555 -1.39453125 49.34570312 C0.40136074 47.56147277 2.19955985 45.77963876 4 44 C2.66531899 41.05573232 1.18267324 38.90763001 -1.046875 36.57421875 C-1.645 35.94193359 -2.243125 35.30964844 -2.859375 34.65820312 C-3.48328125 34.00787109 -4.1071875 33.35753906 -4.75 32.6875 C-5.97538914 31.40110102 -7.19935785 30.11334741 -8.421875 28.82421875 C-8.96424805 28.25791748 -9.50662109 27.69161621 -10.06542969 27.1081543 C-12.7878515 24.14145662 -15.37957452 21.05716306 -18 18 C-12.06 12.06 -6.12 6.12 0 0 Z " fill="#121717" transform="translate(189,40)"/>
<path d="M0 0 C0 37.62 0 75.24 0 114 C-8.91 114 -17.82 114 -27 114 C-27 80.01 -27 46.02 -27 11 C-2 0 -2 0 0 0 Z " fill="#101515" transform="translate(159,28)"/>
<path d="M0 0 C4.69327902 2.65657303 7.56838922 5.64266766 9.3125 10.875 C9.87634129 16.56762838 9.61969906 21.02444138 6.3125 25.875 C2.10723011 30.01298557 -1.02639639 32.03406972 -6.9375 32.1875 C-12.02687369 32.13427779 -14.81131874 31.37301724 -18.6875 27.875 C-23.31030935 22.62748668 -24.04081 19.5274561 -23.96875 12.63671875 C-23.44669674 7.51044581 -20.81186465 4.88967054 -17.125 1.5625 C-11.706759 -2.18858992 -6.05002487 -1.8457703 0 0 Z " fill="#FBFBFB" transform="translate(78.6875,85.125)"/>
<path d="M0 0 C0 37.62 0 75.24 0 114 C-0.66 113.67 -1.32 113.34 -2 113 C-2 76.37 -2 39.74 -2 2 C-2.66 1.67 -3.32 1.34 -4 1 C-2 0 -2 0 0 0 Z " fill="#212828" transform="translate(159,28)"/>
</svg>
