<?xml version="1.0" encoding="UTF-8"?>
<svg version="1.1" xmlns="http://www.w3.org/2000/svg" width="225" height="225">
<path d="M0 0 C74.25 0 148.5 0 225 0 C225 74.25 225 148.5 225 225 C150.75 225 76.5 225 0 225 C0 150.75 0 76.5 0 0 Z " fill="#FEFEFE" transform="translate(0,0)"/>
<path d="M0 0 C1.65 0 3.3 0 5 0 C5 3.63 5 7.26 5 11 C5.99 10.34 6.98 9.68 8 9 C12.97455239 8.5393933 16.06753613 8.83218188 20 12 C22.84437818 15.43287022 23.58221861 18.52575411 23.4296875 23 C22.65395507 26.61068185 20.60947818 28.45265225 18 31 C14.83598119 32.58200941 11.46125163 32.06168567 8 32 C7.01 32 6.02 32 5 32 C3.35 32 1.7 32 0 32 C0 21.44 0 10.88 0 0 Z " fill="#111341" transform="translate(79,85)"/>
<path d="M0 0 C3.76792763 0.41919841 5.58042206 2.19136195 8.21777344 4.79785156 C9.03832214 5.6024884 9.85887085 6.40712524 10.70428467 7.23614502 C11.58046448 8.11212341 12.45664429 8.98810181 13.359375 9.890625 C14.26375305 10.78738953 15.1681311 11.68415405 16.09991455 12.60809326 C18.01021687 14.50758543 19.91690746 16.41006917 21.81884766 18.31787109 C24.25563944 20.76056384 26.71019318 23.18450131 29.17004013 25.60394669 C31.51540369 27.91723595 33.84255397 30.24869977 36.171875 32.578125 C37.05615173 33.44600647 37.94042847 34.31388794 38.85150146 35.20806885 C39.65944153 36.02531433 40.46738159 36.84255981 41.29980469 37.68457031 C42.01610046 38.39881165 42.73239624 39.11305298 43.47039795 39.84893799 C45.31090961 42.43722866 45.32233054 43.89145413 45 47 C42.7774353 47.72891235 42.7774353 47.72891235 40 48 C37.79751587 46.55941772 37.79751587 46.55941772 35.56103516 44.33740234 C34.71731354 43.51259369 33.87359192 42.68778503 33.00430298 41.83798218 C32.10827362 40.92980743 31.21224426 40.02163269 30.2890625 39.0859375 C28.89776627 37.7032518 28.89776627 37.7032518 27.47836304 36.29263306 C25.51683757 34.33995302 23.56657304 32.37683379 21.62353516 30.40576172 C19.13174603 27.87978553 16.61398429 25.3817072 14.08716774 22.89082909 C11.68147783 20.51203223 9.29890756 18.11063394 6.9140625 15.7109375 C6.00588776 14.81490814 5.09771301 13.91887878 4.16201782 12.99569702 C3.33720917 12.1519754 2.51240051 11.30825378 1.66259766 10.43896484 C0.92933258 9.70092621 0.1960675 8.96288757 -0.55941772 8.20248413 C-2 6 -2 6 -1.79141235 3.2850647 C-1 1 -1 1 0 0 Z " fill="#12CA3B" transform="translate(18,77)"/>
<path d="M0 0 C3.5386994 1.65139305 4.81070153 2.71605229 7 6 C7.22705078 7.90112305 7.22705078 7.90112305 7.1953125 10.01171875 C7.18886719 10.76904297 7.18242187 11.52636719 7.17578125 12.30664062 C7.15902344 13.09232422 7.14226562 13.87800781 7.125 14.6875 C7.11597656 15.48478516 7.10695312 16.28207031 7.09765625 17.10351562 C7.07411585 19.069139 7.03824547 21.03460775 7 23 C5.68 23 4.36 23 3 23 C3 22.01 3 21.02 3 20 C2.34 20 1.68 20 1 20 C1 20.66 1 21.32 1 22 C-2.20061023 23.60030511 -5.5267248 23.49422098 -9 23 C-11.91523942 21.03221339 -12.81144448 19.94277758 -13.5 16.5 C-13 14 -13 14 -11.6875 11.6875 C-7.40525166 8.99864639 -2.92480563 9.69432241 2 10 C1.67 8.35 1.34 6.7 1 5 C-1.80045046 4.14349347 -1.80045046 4.14349347 -5 4 C-7.14589423 5.89586384 -7.14589423 5.89586384 -9 8 C-10.32 8 -11.64 8 -13 8 C-10.70075096 0.91064879 -7.39527189 -0.77844967 0 0 Z " fill="#181944" transform="translate(191,94)"/>
<path d="M0 0 C1.32 0 2.64 0 4 0 C4.33 3.63 4.66 7.26 5 11 C5.99 10.34 6.98 9.68 8 9 C11.8973724 8.49164708 13.50556726 8.67037817 16.8125 10.875 C19.89485849 13.8692911 19.98707913 14.48213147 20.09765625 18.9140625 C20.09100226 20.48440463 20.07906939 22.05473119 20.0625 23.625 C20.05798828 24.42679688 20.05347656 25.22859375 20.04882812 26.0546875 C20.03703168 28.03649006 20.01909605 30.01825433 20 32 C18.35 32 16.7 32 15 32 C14.93941406 30.78441406 14.87882813 29.56882812 14.81640625 28.31640625 C14.73201668 26.73175772 14.6473679 25.14712298 14.5625 23.5625 C14.52318359 22.76005859 14.48386719 21.95761719 14.44335938 21.13085938 C14.5945704 17.24760439 14.5945704 17.24760439 13 14 C10.04182893 13.74994614 10.04182893 13.74994614 7 14 C4.06552643 16.93447357 4.53841577 20.18259456 4.375 24.125 C4.33632812 24.87910156 4.29765625 25.63320312 4.2578125 26.41015625 C4.16348969 28.27303184 4.08065338 30.13648255 4 32 C2.68 32 1.36 32 0 32 C0 21.44 0 10.88 0 0 Z " fill="#080937" transform="translate(154,85)"/>
<path d="M0 0 C1.65 0 3.3 0 5 0 C5.33 6.27 5.66 12.54 6 19 C11.46682322 19.47477112 11.46682322 19.47477112 13.83203125 18.01171875 C15.68840762 14.81428118 15.57725371 11.41912874 15.6875 7.8125 C15.72166016 7.06291016 15.75582031 6.31332031 15.79101562 5.54101562 C15.87334294 3.69453162 15.93835281 1.84729006 16 0 C17.32 0 18.64 0 20 0 C20 7.59 20 15.18 20 23 C18.68 23 17.36 23 16 23 C15.67 22.34 15.34 21.68 15 21 C14.34 21.66 13.68 22.32 13 23 C6.04208417 23.56112224 6.04208417 23.56112224 2.5625 21.6875 C0.07628132 19.00238383 -0.1239589 16.48653384 -0.09765625 12.98828125 C-0.09443359 12.23095703 -0.09121094 11.47363281 -0.08789062 10.69335938 C-0.07951172 9.90767578 -0.07113281 9.12199219 -0.0625 8.3125 C-0.05798828 7.51521484 -0.05347656 6.71792969 -0.04882812 5.89648438 C-0.0370585 3.93095743 -0.01912348 1.96546915 0 0 Z " fill="#2D2F56" transform="translate(106,94)"/>
<path d="M0 0 C1.67542976 0.28604898 3.34385343 0.61781233 5 1 C5.33 1.99 5.66 2.98 6 4 C6.99 4.33 7.98 4.66 9 5 C10.21635038 6.44647073 11.42875864 7.89690864 12.6015625 9.37890625 C14.02018885 11.02340328 15.49574044 12.32996611 17.1875 13.6875 C20 16 20 16 22 19 C22.125 21.6875 22.125 21.6875 22 24 C19.79248047 24.74267578 19.79248047 24.74267578 17 25 C14.67236328 23.44873047 14.67236328 23.44873047 12.3203125 21.1171875 C11.4746875 20.27929688 10.6290625 19.44140625 9.7578125 18.578125 C8.88898437 17.68609375 8.02015625 16.7940625 7.125 15.875 C6.23296875 15.00617188 5.3409375 14.13734375 4.421875 13.2421875 C3.58398438 12.3965625 2.74609375 11.5509375 1.8828125 10.6796875 C1.11340332 9.90351074 0.34399414 9.12733398 -0.44873047 8.32763672 C-2 6 -2 6 -1.80517578 3.27001953 C-1 1 -1 1 0 0 Z " fill="#19CC41" transform="translate(41,77)"/>
<path d="M0 0 C3.15829337 -0.33396689 4.58684868 -0.2927454 7.2199707 1.57299805 C7.94788818 2.29527588 8.67580566 3.01755371 9.42578125 3.76171875 C10.22177734 4.55126953 11.01777344 5.34082031 11.83789062 6.15429688 C12.65451172 6.99025391 13.47113281 7.82621094 14.3125 8.6875 C15.14845703 9.50412109 15.98441406 10.32074219 16.84570312 11.16210938 C18.0300293 12.35610352 18.0300293 12.35610352 19.23828125 13.57421875 C19.96055908 14.30213623 20.68283691 15.03005371 21.42700195 15.7800293 C23.2927454 18.41315132 23.33396689 19.84170663 23 23 C20.79248047 23.74267578 20.79248047 23.74267578 18 24 C15.67236328 22.44873047 15.67236328 22.44873047 13.3203125 20.1171875 C12.4746875 19.27929688 11.6290625 18.44140625 10.7578125 17.578125 C9.88898437 16.68609375 9.02015625 15.7940625 8.125 14.875 C7.23296875 14.00617188 6.3409375 13.13734375 5.421875 12.2421875 C4.58398438 11.3965625 3.74609375 10.5509375 2.8828125 9.6796875 C2.11340332 8.90351074 1.34399414 8.12733398 0.55126953 7.32763672 C-1 5 -1 5 -0.74267578 2.20751953 C-0.49759277 1.47903809 -0.25250977 0.75055664 0 0 Z " fill="#13CA3C" transform="translate(17,101)"/>
<path d="M0 0 C2.5 1.8125 2.5 1.8125 4 4 C4 4.99 4 5.98 4 7 C2.68 7 1.36 7 0 7 C-0.474375 6.505 -0.94875 6.01 -1.4375 5.5 C-2.96378798 3.714174 -2.96378798 3.714174 -5.6875 3.8125 C-6.450625 3.874375 -7.21375 3.93625 -8 4 C-8 5.65 -8 7.3 -8 9 C-7.30132812 9.12117188 -6.60265625 9.24234375 -5.8828125 9.3671875 C-4.97273437 9.53476563 -4.06265625 9.70234375 -3.125 9.875 C-2.22007812 10.03742188 -1.31515625 10.19984375 -0.3828125 10.3671875 C2 11 2 11 4 13 C4.56466302 19.21129326 4.56466302 19.21129326 2.7890625 21.69140625 C-0.19004326 23.87044649 -3.03589205 23.52369189 -6.61328125 23.4296875 C-9 23 -9 23 -11.625 20.625 C-13 18 -13 18 -13 16 C-11.68 16 -10.36 16 -9 16 C-8.34 16.99 -7.68 17.98 -7 19 C-3.91634129 19.2502157 -3.91634129 19.2502157 -1 19 C-1 17.68 -1 16.36 -1 15 C-1.71027344 14.72285156 -2.42054688 14.44570312 -3.15234375 14.16015625 C-4.07144531 13.79792969 -4.99054688 13.43570313 -5.9375 13.0625 C-6.85402344 12.70285156 -7.77054688 12.34320313 -8.71484375 11.97265625 C-11 11 -11 11 -12 10 C-12.5789111 3.74776017 -12.5789111 3.74776017 -10.5 1.0625 C-6.94830305 -0.4469712 -3.79830571 -0.71607403 0 0 Z " fill="#10113E" transform="translate(144,94)"/>
<path d="M0 0 C2.14295281 1.58737245 2.89591096 2.49080767 3.43359375 5.12109375 C3.4399798 8.90801901 3.40682818 11.31652866 1.4375 14.625 C-1 16 -1 16 -4.5625 16 C-8 15 -8 15 -9.9375 13.375 C-11.43699866 10.02317947 -11.45377473 7.63019782 -11 4 C-8.10582692 -0.51491 -5.12365602 -0.65210168 0 0 Z " fill="#F4F5F6" transform="translate(94,98)"/>
<path d="M0 0 C0.33 0 0.66 0 1 0 C1 3.63 1 7.26 1 11 C1.99 10.34 2.98 9.68 4 9 C8.97455239 8.5393933 12.06753613 8.83218188 16 12 C19.52139964 16.24996508 19.26853954 19.71872247 19 25 C17.68 25 16.36 25 15 25 C15 25.66 15 26.32 15 27 C13.68 27.33 12.36 27.66 11 28 C11.66 27.01 12.32 26.02 13 25 C13.31560324 22.78417411 13.31560324 22.78417411 13.25 20.4375 C13.25515625 19.65246094 13.2603125 18.86742188 13.265625 18.05859375 C13.18429262 15.77709032 13.18429262 15.77709032 11 14 C6.34805286 13.65783765 6.34805286 13.65783765 2 15 C2 14.01 2 13.02 2 12 C1.34 12 0.68 12 0 12 C0 8.04 0 4.08 0 0 Z " fill="#151845" transform="translate(83,85)"/>
<path d="M0 0 C1.32 0 2.64 0 4 0 C4 7.59 4 15.18 4 23 C2.68 22.67 1.36 22.34 0 22 C0.33 21.01 0.66 20.02 1 19 C0.34 19 -0.32 19 -1 19 C-0.67 12.73 -0.34 6.46 0 0 Z " fill="#000231" transform="translate(122,94)"/>
<path d="M0 0 C1.86562642 1.57297914 2.90238443 2.45510217 3.34057617 4.90112305 C3.32486572 5.59761963 3.30915527 6.29411621 3.29296875 7.01171875 C3.28330078 7.76904297 3.27363281 8.52636719 3.26367188 9.30664062 C3.23853516 10.09232422 3.21339844 10.87800781 3.1875 11.6875 C3.17396484 12.48478516 3.16042969 13.28207031 3.14648438 14.10351562 C3.11117089 16.06929967 3.05736447 18.03473582 3 20 C1.35 20 -0.3 20 -2 20 C-2.05425226 17.60385874 -2.09379027 15.20896147 -2.125 12.8125 C-2.14175781 12.13896484 -2.15851563 11.46542969 -2.17578125 10.77148438 C-2.21538674 6.71192193 -1.80020002 3.65001185 0 0 Z " fill="#2B2D52" transform="translate(171,97)"/>
<path d="M0 0 C0.36615811 5.49237171 0.36615811 5.49237171 -1.203125 7.66796875 C-4.18139093 9.87577023 -7.02132854 9.52407458 -10.61328125 9.4296875 C-13 9 -13 9 -15.625 6.625 C-17 4 -17 4 -17 2 C-15.68 2 -14.36 2 -13 2 C-12.01 3.485 -12.01 3.485 -11 5 C-7.91634129 5.2502157 -7.91634129 5.2502157 -5 5 C-4.71125 4.360625 -4.4225 3.72125 -4.125 3.0625 C-3.04730781 1.08673098 -2.41677831 0 0 0 Z " fill="#030432" transform="translate(148,108)"/>
<path d="M0 0 C2.01822917 0.06510417 4.03645833 0.13020833 6.0546875 0.1953125 C6.27691944 2.93617306 6.40249889 4.63494971 4.9296875 7.0078125 C2.25237613 8.70344303 0.15379377 8.4648 -2.9453125 8.1953125 C-3.9453125 7.1953125 -3.9453125 7.1953125 -4.1328125 4.7578125 C-3.90410521 1.63214619 -3.25878946 0.3271877 0 0 Z " fill="#EAEBEE" transform="translate(186.9453125,105.8046875)"/>
<path d="M0 0 C0.33 0 0.66 0 1 0 C1.33 3.63 1.66 7.26 2 11 C2.99 10.34 3.98 9.68 5 9 C9.07490752 8.66042437 10.53001271 8.68667514 14 11 C14.1875 13.625 14.1875 13.625 14 16 C13.34 16.33 12.68 16.66 12 17 C11.34 16.01 10.68 15.02 10 14 C6.92078868 13.74339906 4.78863007 13.60568496 2 15 C2 14.34 2 13.68 2 13 C1.34 13 0.68 13 0 13 C0 8.71 0 4.42 0 0 Z " fill="#23244D" transform="translate(157,85)"/>
<path d="M0 0 C0.33 0 0.66 0 1 0 C1 3.63 1 7.26 1 11 C1.99 10.34 2.98 9.68 4 9 C6.33199388 8.92094936 8.66832622 8.91201231 11 9 C10.67 10.32 10.34 11.64 10 13 C7.36 13.66 4.72 14.32 2 15 C2 14.01 2 13.02 2 12 C1.34 12 0.68 12 0 12 C0 8.04 0 4.08 0 0 Z " fill="#35355B" transform="translate(83,85)"/>
<path d="M0 0 C2.475 0.495 2.475 0.495 5 1 C5.061875 1.5775 5.12375 2.155 5.1875 2.75 C6.32027301 5.88690987 8.34197595 7.09167504 11 9 C4.7 9.48461538 4.7 9.48461538 1.5625 7.3125 C-0.25953249 4.61589191 -0.35430394 3.18873549 0 0 Z " fill="#181943" transform="translate(178,108)"/>
<path d="M0 0 C0.99 0 1.98 0 3 0 C3 4.95 3 9.9 3 15 C2.01 15.33 1.02 15.66 0 16 C0 10.72 0 5.44 0 0 Z " fill="#000130" transform="translate(107,95)"/>
<path d="M0 0 C0.99 0.33 1.98 0.66 3 1 C-0.75 5.875 -0.75 5.875 -3 7 C-5.3329866 7.04022391 -7.66706666 7.04320247 -10 7 C-10 6.01 -10 5.02 -10 4 C-6.7 3.34 -3.4 2.68 0 2 C0 1.34 0 0.68 0 0 Z " fill="#000131" transform="translate(98,110)"/>
<path d="M0 0 C1.51400391 0.01740234 1.51400391 0.01740234 3.05859375 0.03515625 C4.07050781 0.04417969 5.08242187 0.05320312 6.125 0.0625 C7.29869141 0.07990234 7.29869141 0.07990234 8.49609375 0.09765625 C8.82609375 0.75765625 9.15609375 1.41765625 9.49609375 2.09765625 C8.86960938 2.14664063 8.243125 2.195625 7.59765625 2.24609375 C6.78039062 2.32085937 5.963125 2.395625 5.12109375 2.47265625 C4.30898437 2.54226562 3.496875 2.611875 2.66015625 2.68359375 C0.29275184 2.92658213 0.29275184 2.92658213 -1.50390625 5.09765625 C-2.82390625 5.09765625 -4.14390625 5.09765625 -5.50390625 5.09765625 C-3.09571996 0.12073791 -3.09571996 0.12073791 0 0 Z " fill="#030431" transform="translate(184.50390625,103.90234375)"/>
<path d="M0 0 C0.33 0 0.66 0 1 0 C1 4.62 1 9.24 1 14 C0.01 14 -0.98 14 -2 14 C-2 13.01 -2 12.02 -2 11 C-2.66 10.67 -3.32 10.34 -4 10 C-3.525625 9.46375 -3.05125 8.9275 -2.5625 8.375 C-0.71813924 5.57157164 -0.37543153 3.30379742 0 0 Z " fill="#000234" transform="translate(196,103)"/>
<path d="M0 0 C1.875 0.25 1.875 0.25 4 1 C5.25 3.0625 5.25 3.0625 6 5 C5.34 5 4.68 5 4 5 C3.67 5.99 3.34 6.98 3 8 C1.68 6.02 0.36 4.04 -1 2 C-0.67 1.34 -0.34 0.68 0 0 Z " fill="#060738" transform="translate(94,95)"/>
<path d="M0 0 C1.65 0.99 3.3 1.98 5 3 C4.67 3.66 4.34 4.32 4 5 C3.34 5 2.68 5 2 5 C1.67 5.99 1.34 6.98 1 8 C0.67 7.01 0.34 6.02 0 5 C-0.99 4.34 -1.98 3.68 -3 3 C-2.34 3 -1.68 3 -1 3 C-0.67 2.01 -0.34 1.02 0 0 Z " fill="#1B1D49" transform="translate(143,104)"/>
<path d="M0 0 C0.66 0.33 1.32 0.66 2 1 C2 3.64 2 6.28 2 9 C1.34 9 0.68 9 0 9 C-0.66 8.34 -1.32 7.68 -2 7 C-2 6.01 -2 5.02 -2 4 C-1.34 4 -0.68 4 0 4 C0 2.68 0 1.36 0 0 Z " fill="#2C2C51" transform="translate(100,101)"/>
<path d="M0 0 C0.66 0.33 1.32 0.66 2 1 C2 2.65 2 4.3 2 6 C1.01 6.495 1.01 6.495 0 7 C-0.99 5.02 -1.98 3.04 -3 1 C-2.01 0.67 -1.02 0.34 0 0 Z " fill="#000336" transform="translate(169,95)"/>
<path d="M0 0 C1.32 0.33 2.64 0.66 4 1 C3.34 1.66 2.68 2.32 2 3 C1.53837573 5.43252661 1.53837573 5.43252661 1.375 8.125 C1.30023438 9.03507812 1.22546875 9.94515625 1.1484375 10.8828125 C1.09945312 11.58148438 1.05046875 12.28015625 1 13 C0.67 13 0.34 13 0 13 C0 8.71 0 4.42 0 0 Z " fill="#1C1F4C" transform="translate(122,94)"/>
<path d="M0 0 C2 1.3125 2 1.3125 4 3 C4 3.99 4 4.98 4 6 C2.68 6 1.36 6 0 6 C-1 3 -1 3 0 0 Z " fill="#080935" transform="translate(144,95)"/>
<path d="M0 0 C0.99 0 1.98 0 3 0 C3 0.66 3 1.32 3 2 C2.01 2.495 2.01 2.495 1 3 C1 4.65 1 6.3 1 8 C0.01 7.34 -0.98 6.68 -2 6 C-1.125 1.125 -1.125 1.125 0 0 Z " fill="#30D053" transform="translate(18,77)"/>
<path d="M0 0 C2.97 0.495 2.97 0.495 6 1 C5.67 1.99 5.34 2.98 5 4 C3.35 4 1.7 4 0 4 C0 2.68 0 1.36 0 0 Z " fill="#020232" transform="translate(137,103)"/>
</svg>
