<?xml version="1.0" encoding="UTF-8"?>
<svg version="1.1" xmlns="http://www.w3.org/2000/svg" width="410" height="123">
<path d="M0 0 C135.3 0 270.6 0 410 0 C410 40.59 410 81.18 410 123 C274.7 123 139.4 123 0 123 C0 82.41 0 41.82 0 0 Z " fill="#FCFCFD" transform="translate(0,0)"/>
<path d="M0 0 C9.66536897 0.16664429 17.72976833 1.15816145 25.06640625 7.8984375 C31.58516351 15.00238591 34.35838983 21.94946834 34.21484375 31.53515625 C33.58267579 38.78784687 31.18711345 45.77455812 26 51 C17.0513678 58.04501408 9.15224137 59.97193253 -2.06738281 59.23828125 C-9.0746271 58.37432592 -14.87617722 54.03173059 -19.53125 48.9375 C-25.00098346 41.72210692 -26.50382455 33.53899951 -25.81640625 24.6171875 C-24.30043468 15.64638664 -19.03347253 9.23737942 -11.83203125 3.99609375 C-10 3 -10 3 -7 3 C-3.20341179 12.84538976 -3.20341179 12.84538976 -5 17 C-6.56525143 19.11520464 -8.24706939 21.02795307 -10 23 C-11.74146843 26.48293686 -11.44873928 30.19194859 -11 34 C-9.28256892 38.88161117 -6.63243137 41.73687808 -2 44 C3.50196727 44.82196281 8.45282507 44.67858549 13.5625 42.4375 C17.48252004 38.51747996 19.11229298 34.42405721 19.4375 28.9375 C18.93206127 24.38855139 17.97528859 22.44507099 15 19 C11.32549283 16.10730287 8.55746593 14.77885627 4 14 C3.32968281 12.0429132 2.66385317 10.08428887 2 8.125 C1.62875 7.03445312 1.2575 5.94390625 0.875 4.8203125 C0 2 0 2 0 0 Z " fill="#319AD0" transform="translate(37,29)"/>
<path d="M0 0 C3.3 0 6.6 0 10 0 C10.33 0.99 10.66 1.98 11 3 C11.56074219 2.51402344 12.12148437 2.02804688 12.69921875 1.52734375 C16.58242947 -1.05047525 20.50107395 -0.61695596 25 0 C30.34022785 1.78680592 33.30760806 5.13298381 36 10 C38.42098413 17.26295239 38.28220457 28.0774543 35.4375 35.25 C33.16734128 39.33787322 30.36149061 42.22119599 26 44 C19.25635166 45.31583382 16.98176106 43.98784071 11 40 C10.67 46.27 10.34 52.54 10 59 C6.7 59 3.4 59 0 59 C0 39.53 0 20.06 0 0 Z " fill="#454545" transform="translate(236,39)"/>
<path d="M0 0 C4.30366236 2.64234844 7.72549318 5.69502314 9.6953125 10.40625 C11.50370294 18.17873606 11.84484415 27.37152527 7.55859375 34.36328125 C3.99897402 38.77458913 -0.49262251 42.51110962 -6.23046875 43.27734375 C-12.51391841 43.36710732 -17.72251186 43.05081481 -22.71484375 38.94140625 C-28.13101817 32.49639521 -30.11130722 27.00912932 -29.98828125 18.66796875 C-29.33581049 12.16190319 -27.07283896 6.74688823 -22.15234375 2.37890625 C-16.07933814 -2.39563936 -7.08888266 -2.76415424 0 0 Z " fill="#474747" transform="translate(305.71484375,40.05859375)"/>
<path d="M0 0 C4.31633181 3.18586395 7.91120739 6.79612218 9.625 11.9375 C9.625 15.5675 9.625 19.1975 9.625 22.9375 C0.055 22.9375 -9.515 22.9375 -19.375 22.9375 C-16.49673199 31.57610517 -16.49673199 31.57610517 -12.375 33.9375 C-8.79506741 34.08906973 -5.41426867 33.69963036 -2.5 31.5625 C-1.44093201 30.03273513 -0.40707119 28.48560678 0.625 26.9375 C2.7890625 26.64453125 2.7890625 26.64453125 5.25 26.75 C6.06726563 26.77707031 6.88453125 26.80414063 7.7265625 26.83203125 C8.35304687 26.86683594 8.97953125 26.90164062 9.625 26.9375 C8.00047728 33.59804315 4.3996443 37.98263697 -1.125 41.875 C-6.71710589 43.70318846 -11.95072285 43.69805754 -17.5625 41.9375 C-23.32383141 37.84055322 -27.91257057 33.06709773 -29.1640625 25.93359375 C-29.88342902 19.126255 -29.70818201 13.0666077 -26.375 6.9375 C-19.11949685 -1.14936289 -10.50873863 -3.30830661 0 0 Z " fill="#454545" transform="translate(140.375,40.0625)"/>
<path d="M0 0 C2.97 0 5.94 0 9 0 C9.33 6.27 9.66 12.54 10 19 C10.99 18.01 11.98 17.02 13 16 C18.17998568 14.27333811 23.79749878 14.09027123 28.875 16.1875 C32.71729733 19.46475361 34.83352346 21.61403808 35.45410156 26.78051758 C35.45347396 28.23534254 35.43120943 29.69027234 35.390625 31.14453125 C35.38496521 31.91431808 35.37930542 32.68410492 35.37347412 33.47721863 C35.35117872 35.92295943 35.30099875 38.3672061 35.25 40.8125 C35.229926 42.47589022 35.2116768 44.13930353 35.1953125 45.80273438 C35.15133684 49.86906058 35.08235979 53.93427744 35 58 C32.03 58 29.06 58 26 58 C25.98541748 57.1121582 25.97083496 56.22431641 25.95581055 55.30957031 C25.89465466 52.00672038 25.82048622 48.70469085 25.73754883 45.40234375 C25.70435206 43.97472086 25.67630369 42.54696837 25.65356445 41.11914062 C25.61991987 39.06324185 25.56760438 37.00852488 25.51171875 34.953125 C25.47244263 33.09929199 25.47244263 33.09929199 25.43237305 31.20800781 C24.97516424 27.81573018 24.43915041 26.36361589 22 24 C18.12737814 23.32650055 16.50550464 23.67423035 13.1875 25.8125 C9.6953635 29.3046365 9.83930832 32.46104674 9.68359375 37.19921875 C9.64169922 38.40771484 9.59980469 39.61621094 9.55664062 40.86132812 C9.51732422 42.12396484 9.47800781 43.38660156 9.4375 44.6875 C9.39431641 45.96173828 9.35113281 47.23597656 9.30664062 48.54882812 C9.2004514 51.69910852 9.09840467 54.84946839 9 58 C6.03 58 3.06 58 0 58 C0 38.86 0 19.72 0 0 Z " fill="#414141" transform="translate(194,24)"/>
<path d="M0 0 C3.59884614 3.05356642 4.96169321 4.63743992 5.40307617 9.50878906 C5.40260365 11.01115145 5.38579907 12.51356873 5.35546875 14.015625 C5.35122391 14.80902283 5.34697906 15.60242065 5.34260559 16.41986084 C5.3258504 18.9469232 5.28820506 21.47317983 5.25 24 C5.23494903 25.71613429 5.22126134 27.43228112 5.20898438 29.1484375 C5.17595735 33.34926746 5.12419765 37.54949725 5.0625 41.75 C2.0925 41.75 -0.8775 41.75 -3.9375 41.75 C-3.95731934 40.8621582 -3.97713867 39.97431641 -3.99755859 39.05957031 C-4.07578232 35.75688666 -4.16247885 32.45464936 -4.25488281 29.15234375 C-4.29310024 27.72469602 -4.32796572 26.29695437 -4.359375 24.86914062 C-4.40518401 22.81346132 -4.4631498 20.75842446 -4.5234375 18.703125 C-4.57056885 16.84929199 -4.57056885 16.84929199 -4.61865234 14.95800781 C-4.91432001 11.98321983 -5.37777331 10.25650816 -6.9375 7.75 C-11.1622467 7.33580915 -13.21254592 7.18692058 -16.6315918 9.8425293 C-19.42605943 13.36601421 -19.58572292 15.1322006 -19.64453125 19.58203125 C-19.67353516 20.87431641 -19.70253906 22.16660156 -19.73242188 23.49804688 C-19.7388102 24.85286219 -19.74466288 26.20768013 -19.75 27.5625 C-19.77315748 28.9368884 -19.79852545 30.31124144 -19.82617188 31.68554688 C-19.88503342 35.04065515 -19.92132337 38.39445874 -19.9375 41.75 C-23.2375 41.75 -26.5375 41.75 -29.9375 41.75 C-29.9375 27.89 -29.9375 14.03 -29.9375 -0.25 C-26.9675 -0.25 -23.9975 -0.25 -20.9375 -0.25 C-20.9375 1.07 -20.9375 2.39 -20.9375 3.75 C-20.174375 3.110625 -19.41125 2.47125 -18.625 1.8125 C-13.30599427 -2.26952765 -6.12013755 -2.60431385 0 0 Z " fill="#444444" transform="translate(365.9375,40.25)"/>
<path d="M0 0 C15.51 0 31.02 0 47 0 C47 2.64 47 5.28 47 8 C41.06 8 35.12 8 29 8 C29 24.5 29 41 29 58 C25.7 58 22.4 58 19 58 C19 41.5 19 25 19 8 C12.73 8 6.46 8 0 8 C0 5.36 0 2.72 0 0 Z " fill="#434343" transform="translate(71,24)"/>
<path d="M0 0 C3.81552131 2.02725322 6.55020876 4.62527713 8.80859375 8.2734375 C9.55859375 11.5859375 9.55859375 11.5859375 9.80859375 14.2734375 C6.41037874 14.62363523 3.19131049 14.82111545 -0.19140625 14.2734375 C-1.58078702 12.31195876 -2.91744735 10.31177174 -4.19140625 8.2734375 C-7.16449662 7.48590432 -9.04902458 7.82452583 -12.19140625 8.2734375 C-14.76669033 9.81860795 -15.18332956 11.25473359 -16.37890625 14.0234375 C-18.00519887 20.528608 -17.3393415 24.77232994 -14.26171875 30.57421875 C-13.1768327 32.43563955 -13.1768327 32.43563955 -11.19140625 34.2734375 C-7.69418731 34.34560389 -7.69418731 34.34560389 -4.19140625 33.2734375 C-2.11619156 30.64483223 -1.24797088 28.44313139 -0.19140625 25.2734375 C3.43859375 25.2734375 7.06859375 25.2734375 10.80859375 25.2734375 C8.65425158 32.75694186 6.69014307 37.56537984 0.12109375 42.1484375 C-5.5203126 44.06438683 -10.77987982 44.06182114 -16.44140625 42.2109375 C-21.10918575 38.92227467 -24.29669034 35.34755167 -26.56640625 30.0859375 C-28.17377397 20.28099442 -27.8898248 12.88483116 -22.37890625 4.5234375 C-16.48772587 -1.53606232 -7.96610962 -2.64117004 0 0 Z " fill="#454545" transform="translate(179.19140625,39.7265625)"/>
<path d="M0 0 C2.97 0 5.94 0 9 0 C9 3.96 9 7.92 9 12 C11.64 12 14.28 12 17 12 C17 14.31 17 16.62 17 19 C14.36 19 11.72 19 9 19 C9.13811922 23.31278385 9.28678109 27.62513953 9.4375 31.9375 C9.47681641 33.16919922 9.51613281 34.40089844 9.55664062 35.66992188 C9.61948242 37.4246582 9.61948242 37.4246582 9.68359375 39.21484375 C9.72025146 40.29886475 9.75690918 41.38288574 9.79467773 42.49975586 C9.72364265 44.939263 9.72364265 44.939263 11 46 C13.33297433 46.04092937 15.66705225 46.04241723 18 46 C18 48.64 18 51.28 18 54 C14.28803409 55.85598295 10.04117386 55.59092637 6 55 C2.9375 52.5625 2.9375 52.5625 1 50 C0.67 49.67 0.34 49.34 0 49 C-0.08783542 46.78144736 -0.10694609 44.56011504 -0.09765625 42.33984375 C-0.0962413 41.67537735 -0.09482635 41.01091095 -0.09336853 40.3263092 C-0.08775518 38.19666101 -0.07520054 36.06711661 -0.0625 33.9375 C-0.05748671 32.49674631 -0.05292351 31.05599097 -0.04882812 29.61523438 C-0.03778145 26.07678898 -0.02050792 22.53840461 0 19 C-1.98 19 -3.96 19 -6 19 C-6 16.69 -6 14.38 -6 12 C-4.02 12 -2.04 12 0 12 C0 8.04 0 4.08 0 0 Z " fill="#424242" transform="translate(381,28)"/>
<path d="M0 0 C0.99 0.33 1.98 0.66 3 1 C3.87890625 7.15234375 3.87890625 7.15234375 4 9 C3.67 9.33 3.34 9.66 3 10 C2.61930061 17.39113937 4.02463127 24.22757642 7 31 C9.36510628 33.01571558 10.88751609 33.26432198 14 34 C16.10689542 35.59480279 16.8918518 36.47971949 17.43359375 39.0859375 C17.44054785 43.16104293 17.34216197 45.43366295 15.1875 49 C12.35137661 51.5930271 10.4240707 51.95288103 6.625 52.375 C2.08006265 51.90483407 0.85631038 50.44437428 -2 47 C-2.33 46.67 -2.66 46.34 -3 46 C-3.46870839 38.85219707 -3.46870839 38.85219707 -1.625 35.5 C0 34 0 34 2 34 C1.30226962 30.74242921 0.56143884 27.49614684 -0.1875 24.25 C-0.38408203 23.32960938 -0.58066406 22.40921875 -0.78320312 21.4609375 C-2.09197609 15.90368615 -3.11019586 13.30220539 -8 10 C-9.15556885 7.32805177 -9.46926816 4.89490096 -10 2 C-6.65569263 2.72366315 -4.65737657 3.81715496 -2 6 C-1.34 4.02 -0.68 2.04 0 0 Z " fill="#339BD1" transform="translate(34,17)"/>
<path d="M0 0 C3.0072421 1.81618998 4.56214348 3.80532582 6 7 C6.87835317 12.41441987 7.381132 18.14667234 4.93359375 23.203125 C2.37305473 26.35220583 0.16626868 27.84449751 -3.8125 28.375 C-8.08050978 27.8728812 -9.32344351 26.27134682 -12 23 C-14.70633166 18.49259048 -14.5257864 14.12035065 -14 9 C-11.40999025 1.87747318 -7.77687277 -1.34084013 0 0 Z " fill="#FAFAFA" transform="translate(300,47)"/>
<path d="M0 0 C3.3 0 6.6 0 10 0 C10 14.19 10 28.38 10 43 C6.7 43 3.4 43 0 43 C0 28.81 0 14.62 0 0 Z " fill="#4A4A4A" transform="translate(320,39)"/>
<path d="M0 0 C3.625 0.375 3.625 0.375 5.9375 2.125 C9.72491184 7.17488246 10.28572744 11.17432707 9.625 17.375 C8.69201925 21.31122537 7.53411323 24.40527922 4.75 27.375 C1.98397968 28.67665662 0.64264893 29.03741074 -2.375 28.375 C-6.95556695 23.79443305 -8.49032592 20.38095869 -8.625 14.0625 C-8.56378866 7.88015418 -7.00293524 0.77810392 0 0 Z " fill="#F9F9F9" transform="translate(254.375,46.625)"/>
<path d="M0 0 C3.25585266 1.17764884 4.80625792 2.35746198 6.9375 5.0625 C6.9375 5.7225 6.9375 6.3825 6.9375 7.0625 C3.24723516 6.42988317 0.51024103 5.49159641 -3.0625 4.0625 C-3.0625 7.6925 -3.0625 11.3225 -3.0625 15.0625 C1.13930184 14.4885261 1.13930184 14.4885261 2.9375 11.0625 C4.60364608 11.02084635 6.27135392 11.02084635 7.9375 11.0625 C8.5975 10.4025 9.2575 9.7425 9.9375 9.0625 C11.8828125 8.4296875 11.8828125 8.4296875 14.0625 7.9375 C15.34125 7.64875 16.62 7.36 17.9375 7.0625 C17.6075 6.4025 17.2775 5.7425 16.9375 5.0625 C12.4825 5.5575 12.4825 5.5575 7.9375 6.0625 C9.9375 2.0625 9.9375 2.0625 12.9375 0.0625 C16.76853042 0.38175253 18.70430553 0.90703702 21.9375 3.0625 C22.23046875 5.8828125 22.23046875 5.8828125 22.125 9.1875 C22.09792969 10.28320312 22.07085937 11.37890625 22.04296875 12.5078125 C22.00816406 13.35085937 21.97335937 14.19390625 21.9375 15.0625 C22.5975 15.0625 23.2575 15.0625 23.9375 15.0625 C23.6075 16.3825 23.2775 17.7025 22.9375 19.0625 C22.174375 18.69125 21.41125 18.32 20.625 17.9375 C19.738125 17.64875 18.85125 17.36 17.9375 17.0625 C16.9475 17.7225 15.9575 18.3825 14.9375 19.0625 C11.64305942 18.85659746 9.62639633 18.63658028 7.0625 16.5 C6.69125 16.025625 6.32 15.55125 5.9375 15.0625 C5.56625 15.536875 5.195 16.01125 4.8125 16.5 C2.15143887 18.71755094 0.3901481 19.0625 -3.0625 19.0625 C-6.1264911 17.06424494 -7.73195319 15.53929786 -8.546875 11.8984375 C-8.80513974 7.60837322 -8.3977964 5.55558294 -5.9375 1.9375 C-3.0625 0.0625 -3.0625 0.0625 0 0 Z " fill="#339CD1" transform="translate(375.0625,91.9375)"/>
<path d="M0 0 C1.134375 0.020625 2.26875 0.04125 3.4375 0.0625 C3.4375 1.0525 3.4375 2.0425 3.4375 3.0625 C2.1175 3.0625 0.7975 3.0625 -0.5625 3.0625 C-0.5625 4.3825 -0.5625 5.7025 -0.5625 7.0625 C4.58267993 7.24647888 4.58267993 7.24647888 9.625 6.5 C11.4375 6.0625 11.4375 6.0625 16.4375 7.0625 C16.4375 12.6725 16.4375 18.2825 16.4375 24.0625 C15.1175 24.0625 13.7975 24.0625 12.4375 24.0625 C11.9425 17.6275 11.9425 17.6275 11.4375 11.0625 C10.1175 11.3925 8.7975 11.7225 7.4375 12.0625 C7.1075 16.0225 6.7775 19.9825 6.4375 24.0625 C5.1175 24.0625 3.7975 24.0625 2.4375 24.0625 C2.4375 19.4425 2.4375 14.8225 2.4375 10.0625 C1.4475 10.0625 0.4575 10.0625 -0.5625 10.0625 C-0.5625 14.6825 -0.5625 19.3025 -0.5625 24.0625 C-1.8825 24.0625 -3.2025 24.0625 -4.5625 24.0625 C-4.5625 19.4425 -4.5625 14.8225 -4.5625 10.0625 C-5.5525 10.0625 -6.5425 10.0625 -7.5625 10.0625 C-7.5625 9.0725 -7.5625 8.0825 -7.5625 7.0625 C-6.5725 7.0625 -5.5825 7.0625 -4.5625 7.0625 C-4.583125 6.093125 -4.60375 5.12375 -4.625 4.125 C-4.53542298 -0.264274 -4.48106193 0.07861512 0 0 Z " fill="#339CD1" transform="translate(348.5625,85.9375)"/>
<path d="M0 0 C0.79148437 -0.02578125 1.58296875 -0.0515625 2.3984375 -0.078125 C4.625 0.25 4.625 0.25 6.40234375 1.41015625 C8.11532753 3.9878411 7.92060325 5.87457448 7.8125 8.9375 C7.78542969 9.93136719 7.75835937 10.92523438 7.73046875 11.94921875 C7.69566406 12.70847656 7.66085937 13.46773437 7.625 14.25 C8.285 14.25 8.945 14.25 9.625 14.25 C9.295 15.57 8.965 16.89 8.625 18.25 C7.573125 18.064375 6.52125 17.87875 5.4375 17.6875 C1.79109134 17.05269713 1.79109134 17.05269713 -1.0625 17.875 C-3.375 18.25 -3.375 18.25 -5.6875 17.125 C-7.375 15.25 -7.375 15.25 -7.625 12.5625 C-7.5425 11.799375 -7.46 11.03625 -7.375 10.25 C-6.73691406 9.99605469 -6.09882813 9.74210937 -5.44140625 9.48046875 C-4.61511719 9.13628906 -3.78882813 8.79210937 -2.9375 8.4375 C-2.11378906 8.10105469 -1.29007812 7.76460938 -0.44140625 7.41796875 C1.95872488 6.36596912 1.95872488 6.36596912 2.625 3.25 C0.975 3.25 -0.675 3.25 -2.375 3.25 C-2.375 3.91 -2.375 4.57 -2.375 5.25 C-3.695 5.25 -5.015 5.25 -6.375 5.25 C-5.32341897 0.59299831 -4.80643441 0.09332882 0 0 Z " fill="#309AD1" transform="translate(332.375,92.75)"/>
<path d="M0 0 C3.25585266 1.17764884 4.80625792 2.35746198 6.9375 5.0625 C6.9375 5.7225 6.9375 6.3825 6.9375 7.0625 C3.24723516 6.42988317 0.51024103 5.49159641 -3.0625 4.0625 C-3.0625 7.6925 -3.0625 11.3225 -3.0625 15.0625 C1.13930184 14.4885261 1.13930184 14.4885261 2.9375 11.0625 C4.5875 11.3925 6.2375 11.7225 7.9375 12.0625 C6.56785813 16.1714256 4.71483885 17.06692476 0.9375 19.0625 C-2.51272379 19.0625 -4.24217057 18.71876354 -6.9375 16.5625 C-8.66569862 12.72205862 -8.84011254 9.19264962 -8.0625 5.0625 C-5.58600359 1.42059352 -4.46201838 0.0910616 0 0 Z " fill="#3FA0D3" transform="translate(375.0625,91.9375)"/>
<path d="M0 0 C3.37837952 0.85821738 4.94314777 2.74995318 6.9375 5.4921875 C6.9375 6.8121875 6.9375 8.1321875 6.9375 9.4921875 C0.6675 9.4921875 -5.6025 9.4921875 -12.0625 9.4921875 C-10.39125203 2.80719562 -6.88583174 -0.44340583 0 0 Z " fill="#F4F5F5" transform="translate(133.0625,46.5078125)"/>
<path d="M0 0 C2.97 0 5.94 0 9 0 C9 2.97 9 5.94 9 9 C6.03 9 3.06 9 0 9 C0 6.03 0 3.06 0 0 Z " fill="#3C3C3C" transform="translate(320,24)"/>
<path d="M0 0 C0.33 0 0.66 0 1 0 C1 3.63 1 7.26 1 11 C1.66 11 2.32 11 3 11 C2.67 12.32 2.34 13.64 2 15 C-0.84550012 14.33989524 -3.52325999 13.48275034 -6.25 12.4375 C-6.95640625 12.16808594 -7.6628125 11.89867188 -8.390625 11.62109375 C-8.92171875 11.41613281 -9.4528125 11.21117188 -10 11 C-9.67 9.68 -9.34 8.36 -9 7 C-3.25 5.875 -3.25 5.875 -1 7 C-0.67 4.69 -0.34 2.38 0 0 Z " fill="#62B0DA" transform="translate(339,96)"/>
<path d="M0 0 C-0.33 2.64 -0.66 5.28 -1 8 C-3.8125 8.625 -3.8125 8.625 -7 9 C-7.99 8.34 -8.98 7.68 -10 7 C-8.4558095 2.36742851 -4.87763981 0 0 0 Z " fill="#40A1D3" transform="translate(393,102)"/>
<path d="M0 0 C-0.33 1.98 -0.66 3.96 -1 6 C0.65 6.33 2.3 6.66 4 7 C4 7.66 4 8.32 4 9 C0.98731243 9.92054342 -0.42729162 10.27861489 -3.3125 8.875 C-5 7 -5 7 -5.4375 4.4375 C-5.293125 3.633125 -5.14875 2.82875 -5 2 C-2 0 -2 0 0 0 Z " fill="#359CD1" transform="translate(330,101)"/>
<path d="M0 0 C0.33 0.66 0.66 1.32 1 2 C2.32 2 3.64 2 5 2 C5 1.34 5 0.68 5 0 C6.65 0 8.3 0 10 0 C9.67 1.32 9.34 2.64 9 4 C7.35 4.33 5.7 4.66 4 5 C4 4.34 4 3.68 4 3 C2.68 3 1.36 3 0 3 C0 2.01 0 1.02 0 0 Z " fill="#DFEDF6" transform="translate(325,96)"/>
<path d="M0 0 C3.63 0 7.26 0 11 0 C10.34 1.32 9.68 2.64 9 4 C9 3.34 9 2.68 9 2 C6.36 2 3.72 2 1 2 C0.67 2.66 0.34 3.32 0 4 C0 2.68 0 1.36 0 0 Z " fill="#616161" transform="translate(179,65)"/>
<path d="M0 0 C0.66 0 1.32 0 2 0 C2.55582752 1.95436127 3.09428713 3.91366982 3.625 5.875 C3.92664062 6.96554688 4.22828125 8.05609375 4.5390625 9.1796875 C4.69117188 10.11039063 4.84328125 11.04109375 5 12 C4.34 12.66 3.68 13.32 3 14 C2.49528803 12.23050388 1.99639315 10.45934777 1.5 8.6875 C1.2215625 7.70136719 0.943125 6.71523438 0.65625 5.69921875 C0 3 0 3 0 0 Z " fill="#CCE3F1" transform="translate(36,31)"/>
<path d="M0 0 C-0.33 1.32 -0.66 2.64 -1 4 C-2.65 4.33 -4.3 4.66 -6 5 C-6 4.01 -6 3.02 -6 2 C-3 0 -3 0 0 0 Z " fill="#EAF3F9" transform="translate(393,102)"/>
<path d="M0 0 C0.33 0 0.66 0 1 0 C1 3.63 1 7.26 1 11 C-2.80645161 7.19354839 -2.80645161 7.19354839 -3 4 C-1.625 1.75 -1.625 1.75 0 0 Z " fill="#2796CF" transform="translate(338,96)"/>
<path d="M0 0 C1.98 0.495 1.98 0.495 4 1 C4.33 2.32 4.66 3.64 5 5 C2.5625 4.625 2.5625 4.625 0 4 C-0.33 3.34 -0.66 2.68 -1 2 C-0.67 1.34 -0.34 0.68 0 0 Z " fill="#45A3D5" transform="translate(377,94)"/>
<path d="M0 0 C1.65 0 3.3 0 5 0 C4.34 1.32 3.68 2.64 3 4 C1.68 4 0.36 4 -1 4 C-0.67 2.68 -0.34 1.36 0 0 Z " fill="#F6FAFC" transform="translate(330,103)"/>
<path d="M0 0 C-0.33 1.98 -0.66 3.96 -1 6 C-2.32 4.68 -3.64 3.36 -5 2 C-2 0 -2 0 0 0 Z " fill="#43A2D4" transform="translate(330,101)"/>
</svg>
