<svg width="2797" height="767" viewBox="0 0 2797 767" fill="none" xmlns="http://www.w3.org/2000/svg">
<path d="M678.729 735.856C664.102 735.856 649.476 730.26 638.323 719.107L48.4426 129.227C26.1363 106.921 26.1363 70.7211 48.4426 48.3763C70.7488 26.0315 106.948 26.0315 129.293 48.3763L719.173 638.257C741.48 660.563 741.48 696.762 719.173 719.107C708.02 730.26 693.394 735.856 678.767 735.856H678.729Z" fill="#16CB3E"/>
<path d="M709.872 409.791C695.246 409.791 680.62 404.196 669.466 393.042L374.507 98.0831C352.201 75.7768 352.201 39.5774 374.507 17.2326C396.813 -5.07363 433.013 -5.07363 455.357 17.2326L750.317 312.153C772.623 334.46 772.623 370.659 750.317 393.004C739.164 404.157 724.537 409.753 709.911 409.753L709.872 409.791Z" fill="#16CB3E"/>
<path d="M352.663 766.999C338.037 766.999 323.411 761.404 312.257 750.25L17.298 455.33C-5.0082 433.023 -5.0082 396.824 17.298 374.479C39.6043 352.173 75.8037 352.173 98.1485 374.479L393.108 669.4C415.414 691.706 415.414 727.906 393.108 750.25C381.955 761.404 367.328 766.999 352.702 766.999H352.663Z" fill="#16CB3E"/>
<path d="M1062.68 586.66V630.115H978.511V133.396H1062.68V324.504C1082.67 296.216 1119.26 276.92 1164.79 276.92C1267.6 276.92 1329 350.052 1329 456.296C1329 562.54 1267.6 635.672 1163.41 635.672C1121.3 635.672 1082.67 617.032 1062.68 586.699V586.66ZM1150.98 562.54C1207.55 562.54 1244.8 520.436 1244.8 456.296C1244.8 392.156 1207.55 350.052 1150.98 350.052C1094.4 350.052 1057.16 392.156 1057.16 456.296C1057.16 520.436 1094.4 562.54 1150.98 562.54Z" fill="#00063A"/>
<path d="M1709.1 630.154H1624.23V576.356C1604.9 614.292 1565.57 635.672 1515.9 635.672C1437.25 635.672 1386.2 579.096 1386.2 497.706V282.439H1471.06V479.76C1471.06 527.344 1500.04 560.495 1543.5 560.495C1591.12 560.495 1624.23 523.254 1624.23 472.196V282.478H1709.1V630.192V630.154Z" fill="#00063A"/>
<path d="M1766.37 514.223H1843.63C1847.07 547.335 1872.61 568.02 1910.55 568.02C1943.66 568.02 1965.74 551.464 1965.74 530.779C1965.74 453.517 1775.32 527.344 1775.32 380.385C1775.32 319.68 1828.46 276.881 1900.21 276.881C1981.64 276.881 2037.52 321.725 2040.95 389.339H1963.69C1958.87 356.921 1929.19 340.365 1902.29 340.365C1871.92 340.365 1851.93 354.181 1851.93 377.607C1851.93 452.823 2045.12 370.004 2045.12 527.305C2045.12 592.835 1991.98 635.634 1910.59 635.634C1829.2 635.634 1770.54 588.706 1766.41 514.223H1766.37Z" fill="#00063A"/>
<path d="M2109.26 133.396H2193.43V336.236C2212.76 298.3 2252.74 276.92 2302.45 276.92C2380.41 276.92 2431.46 333.496 2431.46 414.887V630.154H2347.3V432.832C2347.3 385.248 2317.62 352.097 2274.16 352.097C2227.24 352.097 2193.43 389.339 2193.43 440.396V630.115H2109.26V133.396Z" fill="#00063A"/>
<path d="M2641.91 340.366C2597.06 340.366 2570.17 368.654 2568.78 399.682H2492.87C2496.99 330.679 2555.65 276.882 2646.04 276.882C2736.42 276.882 2796.43 327.939 2796.43 406.59V630.115H2712.96V578.363C2698.48 612.865 2658.46 635.634 2608.8 635.634C2539.79 635.634 2492.9 591.485 2492.9 531.474C2492.9 463.861 2545.35 421.795 2623.31 421.795H2687.49C2704.74 421.795 2712.99 412.147 2712.99 398.331C2712.99 364.524 2686.79 340.366 2641.95 340.366H2641.91ZM2628.79 572.883C2681.93 572.883 2712.96 535.642 2712.96 483.195V477.677H2635C2599.11 477.677 2574.99 497.667 2574.99 528.039C2574.99 554.938 2597.06 572.883 2628.79 572.883Z" fill="#00063A"/>
</svg>
