<?xml version="1.0" encoding="UTF-8"?>
<svg version="1.1" xmlns="http://www.w3.org/2000/svg" width="285" height="150">
<path d="M0 0 C94.05 0 188.1 0 285 0 C285 49.5 285 99 285 150 C190.95 150 96.9 150 0 150 C0 100.5 0 51 0 0 Z " fill="#FDFDFE" transform="translate(0,0)"/>
<path d="M0 0 C3.0390625 -0.29296875 3.0390625 -0.29296875 6.625 -0.1875 C7.81351563 -0.16042969 9.00203125 -0.13335937 10.2265625 -0.10546875 C11.14179688 -0.07066406 12.05703125 -0.03585938 13 0 C13.12735492 6.95577319 13.21458327 13.91124287 13.2746582 20.86791992 C13.29971646 23.23164099 13.33377249 25.59528524 13.37719727 27.95874023 C13.43822963 31.36721817 13.46629786 34.77466679 13.48828125 38.18359375 C13.51408768 39.23083115 13.5398941 40.27806854 13.56648254 41.35704041 C13.56946316 49.25229277 11.70838045 54.99089442 6.29072571 60.84788513 C0.24282324 66.6086721 -5.76708583 68.1651197 -14 68.4375 C-21.44125064 68.23123932 -25.77618426 67.03384089 -31.1875 61.94140625 C-37.95934895 54.77050192 -39.42085085 48.96713656 -39.25390625 39.1953125 C-38.74572747 32.80007799 -36.59192135 27.59192135 -32 23 C-26.74626603 19.24581358 -22.3775474 16.86343216 -15.8125 16.6875 C-14.46091797 16.63142578 -14.46091797 16.63142578 -13.08203125 16.57421875 C-8.89327166 17.15289403 -5.65979308 18.95419243 -2 21 C-2.02320313 19.73542969 -2.04640625 18.47085938 -2.0703125 17.16796875 C-2.08907126 15.5078184 -2.10727135 13.84766167 -2.125 12.1875 C-2.14175781 11.35412109 -2.15851563 10.52074219 -2.17578125 9.66210938 C-2.18544922 8.45844727 -2.18544922 8.45844727 -2.1953125 7.23046875 C-2.21102295 6.12288208 -2.21102295 6.12288208 -2.22705078 4.99291992 C-2 3 -2 3 0 0 Z " fill="#04529F" transform="translate(195,62)"/>
<path d="M0 0 C5.15665975 3.90207012 9.11594392 8.73825032 11 15 C11.47843 20.34577546 11.3789265 25.63981987 11.25 31 C11.22990336 32.45700669 11.21165818 33.91404015 11.1953125 35.37109375 C11.15156901 38.9146255 11.08271767 42.45713877 11 46 C6.71 46 2.42 46 -2 46 C-2.33 44.35 -2.66 42.7 -3 41 C-3.66 41 -4.32 41 -5 41 C-5.33 41.99 -5.66 42.98 -6 44 C-11.98179495 47.58907697 -18.14809326 47.95798962 -25 47 C-31.58845683 44.52520403 -37.01992623 39.14694695 -40.03515625 32.83203125 C-42.80127046 25.35709007 -42.86064009 18.72769067 -40.10546875 11.23828125 C-36.79395148 4.53333638 -31.66381728 0.14331004 -25 -3 C-16.45130411 -5.61947617 -7.67895688 -4.44226345 0 0 Z " fill="#04519F" transform="translate(86,83)"/>
<path d="M0 0 C5.62949401 3.95667284 10.01264478 8.22716321 12 15 C12.47515918 20.34618386 12.37893028 25.63966268 12.25 31 C12.22990336 32.45700669 12.21165818 33.91404015 12.1953125 35.37109375 C12.15156901 38.9146255 12.08271767 42.45713877 12 46 C7.71 46 3.42 46 -1 46 C-1.33 44.35 -1.66 42.7 -2 41 C-2.66 41 -3.32 41 -4 41 C-4 41.66 -4 42.32 -4 43 C-10.61279573 47.06941276 -16.26343433 48.18863677 -24 47 C-30.58933259 44.50971712 -36.01575586 39.15568113 -39.03515625 32.83203125 C-41.80127046 25.35709007 -41.86064009 18.72769067 -39.10546875 11.23828125 C-35.79395148 4.53333638 -30.66381728 0.14331004 -24 -3 C-15.65982077 -5.56088491 -7.36588624 -4.57332497 0 0 Z " fill="#03519F" transform="translate(273,83)"/>
<path d="M0 0 C6.99019327 4.08860361 12.98374362 8.86873734 15.3125 16.9375 C15.78910713 22.44967742 15.69106851 27.91148007 15.5625 33.4375 C15.54240494 34.94268458 15.52415948 36.44789505 15.5078125 37.953125 C15.46747519 41.61575313 15.38916244 45.27473908 15.3125 48.9375 C10.3625 48.9375 5.4125 48.9375 0.3125 48.9375 C0.25191406 46.73449219 0.19132812 44.53148437 0.12890625 42.26171875 C0.06708941 40.12700054 0.00371311 37.99233392 -0.05981445 35.85766602 C-0.1031133 34.37463985 -0.14479199 32.89156546 -0.18481445 31.40844727 C-0.24263958 29.27605661 -0.30629832 27.14390758 -0.37109375 25.01171875 C-0.42608032 23.08718872 -0.42608032 23.08718872 -0.48217773 21.1237793 C-0.55311234 17.91638449 -0.55311234 17.91638449 -1.6875 14.9375 C-5.33156062 13.72281313 -8.93337199 13.01615723 -12.6875 13.9375 C-15.95706519 16.579358 -17.51740389 18.08072191 -18.34692383 22.2590332 C-18.36263428 23.48968506 -18.37834473 24.72033691 -18.39453125 25.98828125 C-18.40965256 26.64708786 -18.42477386 27.30589447 -18.44035339 27.98466492 C-18.48308566 30.073462 -18.49205265 32.1608102 -18.5 34.25 C-18.52315614 35.67256417 -18.54852383 37.09509417 -18.57617188 38.51757812 C-18.6430202 41.99166509 -18.66411586 45.4617667 -18.6875 48.9375 C-23.3075 48.9375 -27.9275 48.9375 -32.6875 48.9375 C-32.77981606 44.38324119 -32.85929505 39.8322844 -32.90722656 35.27783203 C-32.92722503 33.73182113 -32.95443331 32.18588473 -32.98925781 30.64013672 C-33.36573812 13.48813684 -33.36573812 13.48813684 -27.01171875 5.94921875 C-18.67142373 -0.79865718 -10.46192404 -3.01445269 0 0 Z " fill="#04529F" transform="translate(135.6875,80.0625)"/>
<path d="M0 0 C0.33 0.66 0.66 1.32 1 2 C-0.29296875 4.390625 -0.29296875 4.390625 -2.1875 7.25 C-2.83332031 8.23484375 -3.47914063 9.2196875 -4.14453125 10.234375 C-5.54861641 12.32720088 -6.95889388 14.41532334 -8.375 16.5 C-11.72363203 21.65174158 -11.62195068 27.0360894 -11 33 C-8.95214415 37.16884941 -7.26835318 39.28187228 -3 41 C2.01815989 41.7121481 5.94174495 41.52912753 10.5 39.25 C13.54325432 36.51107111 14.76447877 34.57427351 15.37109375 30.51953125 C15.54944075 23.2492683 14.03225147 18.9637497 10 13 C8.70303618 11.02430055 7.41146657 9.04505069 6.125 7.0625 C5.50882813 6.14597656 4.89265625 5.22945312 4.2578125 4.28515625 C3.84273437 3.53105469 3.42765625 2.77695312 3 2 C3.33 1.34 3.66 0.68 4 0 C12.64406877 1.69794208 19.21823101 5.12493848 24.74609375 12.12890625 C29.0801957 18.59630449 29.96475668 25.32579913 29 33 C26.84546562 40.95125783 21.55281443 48.10212006 14.5625 52.5 C7.71382546 55.4829188 -1.72264627 55.29998006 -8.7890625 53.15234375 C-15.42856307 49.78696116 -20.89585637 44.05479342 -23.9375 37.25 C-26.18111064 30.05351304 -26.10450036 22.57823222 -23 15.6875 C-19.13912599 8.88448688 -13.29502914 3.85457662 -6 1 C-2.625 0.3125 -2.625 0.3125 0 0 Z " fill="#0653A0" transform="translate(142,19)"/>
<path d="M0 0 C2.625 1.8125 2.625 1.8125 3.8125 4 C3.53634353 8.14234709 1.67817619 11.26129826 -0.375 14.8125 C-1.2 14.4825 -2.025 14.1525 -2.875 13.8125 C-8.24927997 12.27699144 -12.42446816 12.07645025 -17.6875 14.0625 C-20.44307662 15.85682896 -21.90876443 16.88002885 -23.375 19.8125 C-23.9525294 25.0102646 -23.25696356 28.43986563 -20.375 32.8125 C-16.71578714 36.04121723 -13.28879872 36.25803896 -8.59375 36.1171875 C-5.46851713 35.6880182 -3.07453381 34.39271491 -0.375 32.8125 C0.285 32.8125 0.945 32.8125 1.625 32.8125 C3.605 36.7725 5.585 40.7325 7.625 44.8125 C-0.84680666 51.01138292 -8.96320105 51.79837473 -19.375 50.8125 C-22.4096447 49.89548899 -24.78785171 48.6235038 -27.375 46.8125 C-28.261875 46.255625 -29.14875 45.69875 -30.0625 45.125 C-35.50634588 39.68115412 -38.53552794 32.90151152 -38.75 25.3125 C-38.67771992 17.47412717 -36.98696918 11.85344415 -31.73046875 5.97265625 C-23.18492801 -1.91701906 -11.09630441 -4.02874123 0 0 Z " fill="#05529F" transform="translate(38.375,79.1875)"/>
<path d="M0 0 C4.62 0 9.24 0 14 0 C14 15.84 14 31.68 14 48 C9.38 48 4.76 48 0 48 C0 32.16 0 16.32 0 0 Z " fill="#004F9E" transform="translate(214,81)"/>
<path d="M0 0 C4.33976986 2.25334204 7.09688482 4.45366929 9 9 C9.54957375 13.31807946 9.2941115 15.44328894 7.25 19.3125 C4.57177168 22.51149494 2.73110721 23.75792647 -1.40234375 24.3359375 C-5.64465711 24.40130442 -8.26810834 24.4269368 -12 22.25 C-14.97870059 18.89896183 -15.87462312 17.12839194 -16.375 12.625 C-15.92515417 8.27649031 -14.79790424 6.32723747 -12 3 C-8.07324125 -0.18385844 -4.98824428 -0.6125914 0 0 Z " fill="#F6F9FB" transform="translate(262,92)"/>
<path d="M0 0 C4.30619632 2.23590963 7.26400997 4.40473228 9 9 C9.29898412 13.97400857 8.73832098 17.09129725 5.5625 21 C0.901692 24.6377038 -3.21374924 24.66519103 -9 24 C-12.50252011 21.95686327 -14.77361702 19.90212767 -16 16 C-16.46931049 11.7762056 -16.28387834 9.54672865 -14.3125 5.75 C-10.05820349 0.69083658 -6.64730633 -0.81633587 0 0 Z " fill="#F6F9FB" transform="translate(74,92)"/>
<path d="M0 0 C3.78580423 2.03850997 7.05061257 4.10122513 9 8 C9.54897239 12.86232692 9.5113954 15.01373745 7.25 19.375 C4.66111425 22.39536671 2.77129709 23.69404868 -1.1484375 24.37109375 C-5.28770068 24.49454546 -8.12211901 24.39741725 -11.4375 21.75 C-14.5885381 18.36839813 -15.78147047 16.67539309 -16.375 12.125 C-15.78146428 7.17886897 -13.50741708 4.22223006 -9.6875 1.125 C-6.16108808 -0.35117243 -3.79611 -0.46618895 0 0 Z " fill="#F8FAFC" transform="translate(185,92)"/>
<path d="M0 0 C3.27912006 3.29310351 3.92042834 6.38484398 4 11 C1.81693388 15.36613224 -0.42333843 18.20913243 -5 20 C-10.04325384 20.68426057 -13.83076884 20.5739862 -18.4375 18.3125 C-22.79968077 14.37589785 -22.79968077 14.37589785 -24 11 C-23.62239385 6.7352717 -23.07782252 3.07782252 -20 0 C-13.58386898 -1.56838758 -6.42460925 -1.43251423 0 0 Z " fill="#EDF1F8" transform="translate(154,41)"/>
<path d="M0 0 C3.70114011 0.94901028 5.17604576 2.58819002 7.4375 5.625 C8.06241523 9.58279649 8.04756839 11.63363886 5.9375 15.0625 C2.90563683 16.95741448 0.87669544 17.26536692 -2.65625 17.07421875 C-4.5625 16.625 -4.5625 16.625 -7.0625 14.5 C-8.85202585 11.07007546 -9.35485586 9.42830813 -8.5625 5.625 C-5.86086991 2.73488409 -3.87821714 0.94590662 0 0 Z " fill="#0955A1" transform="translate(221.5625,60.375)"/>
<path d="M0 0 C7.26 0.33 14.52 0.66 22 1 C21 5 21 5 19.2734375 6.66015625 C15.15830769 9.08539598 10.74342622 9.85605209 6 10 C2.73305549 8.86669948 0.57513256 7.15026513 -1 4 C-0.67 2.68 -0.34 1.36 0 0 Z " fill="#C7CFE8" transform="translate(133,51)"/>
<path d="M0 0 C7.92 0 15.84 0 24 0 C25 5 25 5 23.3125 7.6875 C19.78360057 11.21639943 17.68511908 12.09893423 12.75 12.125 C10.89375 12.063125 10.89375 12.063125 9 12 C9 11.67 9 11.34 9 11 C9.75925781 10.84144531 10.51851562 10.68289062 11.30078125 10.51953125 C12.29464844 10.28621094 13.28851563 10.05289063 14.3125 9.8125 C15.29863281 9.59207031 16.28476563 9.37164062 17.30078125 9.14453125 C20.63974203 7.72873456 21.45975378 6.21191276 23 3 C21.62328125 3.01740234 21.62328125 3.01740234 20.21875 3.03515625 C13.70996973 3.08301493 7.43129355 3.02900697 1 2 C0.67 2.66 0.34 3.32 0 4 C0 2.68 0 1.36 0 0 Z " fill="#DCE2F1" transform="translate(132,49)"/>
<path d="M0 0 C6.6 0 13.2 0 20 0 C18 4 18 4 16 5 C14.04550156 5.1481544 12.0848947 5.22124849 10.125 5.25 C8.55105469 5.28867187 8.55105469 5.28867187 6.9453125 5.328125 C3.676553 4.96396612 2.31241815 4.30124705 0 2 C0 1.34 0 0.68 0 0 Z " fill="#A0AAD5" transform="translate(134,54)"/>
<path d="M0 0 C3.96 0 7.92 0 12 0 C11.67 0.99 11.34 1.98 11 3 C9.54176788 3.0270043 8.08339325 3.04639787 6.625 3.0625 C5.81289062 3.07410156 5.00078125 3.08570313 4.1640625 3.09765625 C2 3 2 3 0 2 C0 1.34 0 0.68 0 0 Z " fill="#939CCD" transform="translate(136,56)"/>
</svg>
