<?xml version="1.0" encoding="UTF-8"?>
<svg version="1.1" xmlns="http://www.w3.org/2000/svg" width="475" height="106">
<path d="M0 0 C156.75 0 313.5 0 475 0 C475 34.98 475 69.96 475 106 C318.25 106 161.5 106 0 106 C0 71.02 0 36.04 0 0 Z " fill="#FEFDFD" transform="translate(0,0)"/>
<path d="M0 0 C34.98 0 69.96 0 106 0 C106.309375 13.550625 106.61875 27.10125 106.9375 41.0625 C107.07406006 45.31133057 107.21062012 49.56016113 107.35131836 53.93774414 C107.41906738 59.20202637 107.41906738 59.20202637 107.43165588 61.68113708 C107.45441387 63.38108051 107.50660167 65.08080985 107.58363342 66.77915955 C107.9289821 74.80778659 108.14775934 81.85708606 102.84207153 88.3210144 C99.70694642 91.67387462 96.30581688 94.62985526 92.74424934 97.51897812 C90.66214918 99.28686521 89.01032158 101.31629034 87.24609375 103.39477539 C81.24805333 108.41624831 71.433908 106.83827172 64.0625 106.68359375 C62.42254296 106.67328818 60.78256285 106.66615529 59.14257812 106.66223145 C53.09469855 106.62568794 47.04731346 106.52795811 41 106.4375 C27.47 106.293125 13.94 106.14875 0 106 C0 71.02 0 36.04 0 0 Z " fill="#F23206" transform="translate(0,0)"/>
<path d="M0 0 C1.68319336 0.02707031 1.68319336 0.02707031 3.40039062 0.0546875 C6.16312732 0.10171281 8.92542362 0.17345285 11.6875 0.25 C11.6875 7.18 11.6875 14.11 11.6875 21.25 C6.7375 21.25 1.7875 21.25 -3.3125 21.25 C-3.3125 18.61 -3.3125 15.97 -3.3125 13.25 C-4.9625 13.25 -6.6125 13.25 -8.3125 13.25 C-8.3125 22.49 -8.3125 31.73 -8.3125 41.25 C-6.6625 41.25 -5.0125 41.25 -3.3125 41.25 C-3.3125 35.97 -3.3125 30.69 -3.3125 25.25 C1.6375 25.25 6.5875 25.25 11.6875 25.25 C12.52076599 32.42955446 13.09737823 39.10778963 10.08203125 45.828125 C6.45892699 50.34370682 3.51647993 52.81107831 -2.18896484 53.69628906 C-9.25299836 54.17736388 -16.26553212 53.85640053 -23.3125 53.25 C-23.46133824 47.39684061 -23.5699473 41.54479356 -23.64208984 35.69018555 C-23.6721767 33.70073243 -23.71305754 31.71141102 -23.76513672 29.72241211 C-23.83831125 26.85497485 -23.87203679 23.98929756 -23.8984375 21.12109375 C-23.94488907 19.79723915 -23.94488907 19.79723915 -23.99227905 18.44664001 C-23.99537752 12.70115802 -22.8721727 9.77417519 -18.81001282 5.67073059 C-18.31583359 5.2018895 -17.82165436 4.7330484 -17.3125 4.25 C-16.61769531 3.45078125 -15.92289063 2.6515625 -15.20703125 1.828125 C-10.39502835 -0.79542314 -5.37329517 -0.16330295 0 0 Z " fill="#FEFDFC" transform="translate(78.3125,27.75)"/>
<path d="M0 0 C4.29 0 8.58 0 13 0 C13.33 5.94 13.66 11.88 14 18 C15.65 16.68 17.3 15.36 19 14 C23.71731806 13.40097548 25.94643751 13.51374039 30.25 15.5 C34.90604209 19.73276554 36.70029606 23.22926763 37.3828125 29.5390625 C37.60336216 36.87601441 37.61015605 43.95256001 33 50 C29.79862316 52.90025723 26.67606974 53.91840538 22.375 54.4375 C18.79826625 53.97384933 16.82130514 53.22284647 14 51 C14 50.34 14 49.68 14 49 C13.34 49 12.68 49 12 49 C11.67 50.32 11.34 51.64 11 53 C7.37 53 3.74 53 0 53 C0 35.51 0 18.02 0 0 Z " fill="#F13006" transform="translate(373,20)"/>
<path d="M0 0 C4.95 0 9.9 0 15 0 C15 1.98 15 3.96 15 6 C21.93 6 28.86 6 36 6 C36 8.97 36 11.94 36 15 C35 16 35 16 33.05053711 16.11352539 C32.2178833 16.10828857 31.38522949 16.10305176 30.52734375 16.09765625 C29.71773193 16.09515869 28.90812012 16.09266113 28.07397461 16.09008789 C27.03893799 16.08098389 26.00390137 16.07187988 24.9375 16.0625 C21.658125 16.041875 18.37875 16.02125 15 16 C15 23.92 15 31.84 15 40 C16.65 40 18.3 40 20 40 C19.98839844 38.71222656 19.97679688 37.42445312 19.96484375 36.09765625 C19.9554673 34.41927228 19.94636695 32.74088674 19.9375 31.0625 C19.92912109 30.21236328 19.92074219 29.36222656 19.91210938 28.48632812 C19.90727539 27.27299805 19.90727539 27.27299805 19.90234375 26.03515625 C19.89448853 24.91185913 19.89448853 24.91185913 19.88647461 23.76586914 C20 22 20 22 21 21 C25.95 21 30.9 21 36 21 C36 31.56 36 42.12 36 53 C32.04 53.165 28.08 53.33 24 53.5 C22.76765625 53.57283203 21.5353125 53.64566406 20.265625 53.72070312 C12.30938175 53.88044635 12.30938175 53.88044635 8.5078125 51.32421875 C6.46890572 49.3114518 4.71338017 47.29365055 3 45 C2.44143311 44.44602539 1.88286621 43.89205078 1.30737305 43.32128906 C-0.7924314 39.59300882 -0.36721378 35.84190403 -0.29296875 31.640625 C-0.28872391 30.73624695 -0.28447906 29.8318689 -0.28010559 28.90008545 C-0.26333574 26.01641861 -0.22568669 23.133455 -0.1875 20.25 C-0.17245097 18.29297886 -0.15876295 16.33594674 -0.14648438 14.37890625 C-0.11343774 9.58566725 -0.06166705 4.79295279 0 0 Z " fill="#FEF9F8" transform="translate(16,28)"/>
<path d="M0 0 C4.29 0 8.58 0 13 0 C13.33 5.94 13.66 11.88 14 18 C14.99 17.01 15.98 16.02 17 15 C21.67825513 13.16211406 26.60585741 13.49060175 31.25 15.1875 C34.27103801 17.17863869 35.43093841 18.77929464 37 22 C37.495 22.99 37.495 22.99 38 24 C38.08559118 26.17824961 38.10713412 28.35915255 38.09765625 30.5390625 C38.09443359 31.84101562 38.09121094 33.14296875 38.08789062 34.484375 C38.07953466 35.86458399 38.07106971 37.24479232 38.0625 38.625 C38.05748501 40.01301926 38.0529221 41.40104022 38.04882812 42.7890625 C38.03700985 46.19272673 38.0190739 49.5963687 38 53 C33.38 53 28.76 53 24 53 C23.93941406 51.14632812 23.87882812 49.29265625 23.81640625 47.3828125 C23.73201279 44.96353321 23.64736419 42.54426282 23.5625 40.125 C23.52318359 38.90167969 23.48386719 37.67835937 23.44335938 36.41796875 C23.40146484 35.25136719 23.35957031 34.08476563 23.31640625 32.8828125 C23.27974854 31.80402832 23.24309082 30.72524414 23.20532227 29.61376953 C23.16623357 27.01930464 23.16623357 27.01930464 22 25 C19.62694422 24.58219121 19.62694422 24.58219121 17 25 C14.3634876 28.50446441 13.60949305 31.18014897 13.48828125 35.51953125 C13.45283203 36.54111328 13.41738281 37.56269531 13.38085938 38.61523438 C13.34702148 40.19788086 13.34702148 40.19788086 13.3125 41.8125 C13.27833984 42.88693359 13.24417969 43.96136719 13.20898438 45.06835938 C13.12674157 47.71187813 13.06168807 50.35592174 13 53 C8.71 53 4.42 53 0 53 C0 35.51 0 18.02 0 0 Z " fill="#F23208" transform="translate(245,20)"/>
<path d="M0 0 C3.36956587 2.66757298 4.39920824 4.42397223 6 8.375 C6.34057617 11.71826172 6.34057617 11.71826172 6.29296875 15.3046875 C6.2784668 17.23828125 6.2784668 17.23828125 6.26367188 19.2109375 C6.23861188 20.55729786 6.21321712 21.90365203 6.1875 23.25 C6.17243504 24.61977705 6.15874982 25.98957002 6.14648438 27.359375 C6.11121379 30.69832358 6.06191896 34.03645675 6 37.375 C4.3973218 37.48324843 2.79254252 37.56070645 1.1875 37.625 C0.29417969 37.67140625 -0.59914063 37.7178125 -1.51953125 37.765625 C-4 37.375 -4 37.375 -5.82421875 35.359375 C-6.21222656 34.70453125 -6.60023438 34.0496875 -7 33.375 C-8.175625 34.3340625 -8.175625 34.3340625 -9.375 35.3125 C-13.3054679 38.40072478 -15.77171681 38.76598892 -20.671875 38.734375 C-24.59004236 38.12955722 -26.30358816 36.20623243 -29 33.375 C-30.98056268 29.41387464 -30.55396686 24.68224797 -30 20.375 C-27.20785947 16.46600326 -24.50170237 14.82654323 -20 13.375 C-16.66796875 13.1796875 -16.66796875 13.1796875 -13.1875 13.25 C-11.44533203 13.27707031 -11.44533203 13.27707031 -9.66796875 13.3046875 C-8.78753906 13.32789063 -7.90710938 13.35109375 -7 13.375 C-7.99 11.725 -8.98 10.075 -10 8.375 C-11.41702513 8.51730808 -12.8336096 8.66400746 -14.25 8.8125 C-15.03890625 8.89371094 -15.8278125 8.97492187 -16.640625 9.05859375 C-18.82364639 9.35134993 -20.8773182 9.79564419 -23 10.375 C-26.10096154 4.91730769 -26.10096154 4.91730769 -25.58984375 2.171875 C-25.39519531 1.57890625 -25.20054687 0.9859375 -25 0.375 C-7.61648178 -3.84832764 -7.61648178 -3.84832764 0 0 Z " fill="#F23208" transform="translate(358,35.625)"/>
<path d="M0 0 C4.01768702 3.09052848 6.22148583 6.24095736 6.89160156 11.31005859 C6.8706543 12.53547363 6.84970703 13.76088867 6.828125 15.0234375 C6.82246521 15.68082916 6.81680542 16.33822083 6.81097412 17.01553345 C6.78876275 19.09446191 6.7386042 21.17160163 6.6875 23.25 C6.66741489 24.66794368 6.64916765 26.08591465 6.6328125 27.50390625 C6.58895067 30.96150877 6.52003437 34.41807951 6.4375 37.875 C4.98087413 37.92901162 3.52367741 37.96779829 2.06640625 38 C1.25502197 38.02320313 0.4436377 38.04640625 -0.39233398 38.0703125 C-2.5625 37.875 -2.5625 37.875 -4.625 35.875 C-4.934375 35.215 -5.24375 34.555 -5.5625 33.875 C-6.28953125 34.41640625 -6.28953125 34.41640625 -7.03125 34.96875 C-12.16089059 38.52003964 -15.32447843 39.78051926 -21.5625 38.875 C-25.62860902 36.76664717 -27.85304187 35.09836714 -29.5625 30.875 C-30.2104805 27.12353395 -30.38179119 23.47634187 -28.6171875 20.02734375 C-26.01398107 16.69556696 -23.53033416 15.09803979 -19.5625 13.875 C-16.23046875 13.6796875 -16.23046875 13.6796875 -12.75 13.75 C-11.00783203 13.77707031 -11.00783203 13.77707031 -9.23046875 13.8046875 C-8.35003906 13.82789063 -7.46960938 13.85109375 -6.5625 13.875 C-7.2225 12.225 -7.8825 10.575 -8.5625 8.875 C-13.75459404 8.66307779 -17.689239 9.2837311 -22.5625 10.875 C-23.5525 7.905 -24.5425 4.935 -25.5625 1.875 C-17.22217128 -1.51767609 -8.74154401 -2.76048758 0 0 Z " fill="#F23007" transform="translate(445.5625,35.125)"/>
<path d="M0 0 C6.3223478 6.48872537 6 10.41055676 6 20 C-1.92 20 -9.84 20 -18 20 C-16.66436384 24.94463635 -16.66436384 24.94463635 -14 26 C-11.87681936 26.0972886 -9.75040309 26.12977619 -7.625 26.125 C-6.48289063 26.12757812 -5.34078125 26.13015625 -4.1640625 26.1328125 C-0.8254694 26.09919288 -0.8254694 26.09919288 3 25 C3 27.97 3 30.94 3 34 C-4.39721956 37.94518376 -11.83816296 38.15657747 -19.875 35.8125 C-24.85233561 33.90704415 -27.8641153 31.21767966 -30.3125 26.4375 C-31.9477224 18.26138802 -31.86767409 10.46861204 -28 3 C-20.63108128 -4.56807869 -8.97396963 -5.12798265 0 0 Z " fill="#F23107" transform="translate(194,37)"/>
<path d="M0 0 C1.36125 0.7425 1.36125 0.7425 2.75 1.5 C1.43 4.47 0.11 7.44 -1.25 10.5 C-2.00925781 10.39300781 -2.76851563 10.28601562 -3.55078125 10.17578125 C-5.04158203 9.99595703 -5.04158203 9.99595703 -6.5625 9.8125 C-8.04169922 9.62107422 -8.04169922 9.62107422 -9.55078125 9.42578125 C-12.22080133 9.27826458 -12.22080133 9.27826458 -14.0859375 10.6015625 C-15.74488885 13.30710061 -15.6122533 15.41273361 -15.5625 18.5625 C-15.55863281 19.62597656 -15.55476563 20.68945312 -15.55078125 21.78515625 C-15.51999512 24.64663266 -15.51999512 24.64663266 -13.25 26.5 C-7.96545462 27.21869817 -3.18117852 26.5230476 1.75 24.5 C1.75 28.13 1.75 31.76 1.75 35.5 C-4.9552226 38.48009894 -11.31792783 40.07622925 -18.5234375 37.7734375 C-23.88735591 35.32079079 -26.94390751 32.24279422 -29.5 26.875 C-31.09391815 19.70236833 -31.33800486 12.73498524 -27.59375 6.22265625 C-21.13295013 -2.05993894 -9.52072501 -4.13605267 0 0 Z " fill="#F2340B" transform="translate(320.25,35.5)"/>
<path d="M0 0 C-0.51207144 3.75519057 -1.2175082 6.66688525 -3 10 C-3.75925781 9.89300781 -4.51851562 9.78601562 -5.30078125 9.67578125 C-6.79158203 9.49595703 -6.79158203 9.49595703 -8.3125 9.3125 C-9.79169922 9.12107422 -9.79169922 9.12107422 -11.30078125 8.92578125 C-14.01547376 8.73889812 -14.01547376 8.73889812 -15.79296875 10.35546875 C-18.48762909 14.02683445 -18.28236448 17.59843606 -18 22 C-17.69841975 23.34087219 -17.37364975 24.67739849 -17 26 C-15.2709226 26.02725341 -13.54171824 26.04650987 -11.8125 26.0625 C-10.36810547 26.07990234 -10.36810547 26.07990234 -8.89453125 26.09765625 C-6.14423487 26.00486622 -3.67520409 25.62111685 -1 25 C-1 28.3 -1 31.6 -1 35 C-6.69827526 37.97301318 -11.58576903 38.91345073 -18 38 C-22.7794577 36.40138207 -26.85299048 33.99428132 -30 30 C-32.95732984 23.93478535 -32.7228448 17.59502727 -32 11 C-29.95493817 5.26856062 -26.36094398 1.85156595 -21 -1 C-14.29011442 -3.12787069 -6.42598862 -2.77880589 0 0 Z " fill="#F23107" transform="translate(238,36)"/>
<path d="M0 0 C2.64 0 5.28 0 8 0 C8 2.64 8 5.28 8 8 C11.3 8 14.6 8 18 8 C18 10.97 18 13.94 18 17 C14.7 17 11.4 17 8 17 C8.33 23.27 8.66 29.54 9 36 C11.97 36 14.94 36 18 36 C18 38.97 18 41.94 18 45 C13.21478429 47.55211505 8.28480538 47.68491078 3 47 C-0.53845737 45.29395805 -2.40444311 44.21132154 -4.14404297 40.6730957 C-5.02861533 37.91063626 -5.23076441 35.80729952 -5.1953125 32.91796875 C-5.18886719 31.98662109 -5.18242187 31.05527344 -5.17578125 30.09570312 C-5.15902344 29.13599609 -5.14226562 28.17628906 -5.125 27.1875 C-5.11597656 26.20845703 -5.10695312 25.22941406 -5.09765625 24.22070312 C-5.07417182 21.81354939 -5.0413284 19.40690257 -5 17 C-6.32 17 -7.64 17 -9 17 C-9.3125 14.1875 -9.3125 14.1875 -9 11 C-7.34151823 9.98648336 -5.67334039 8.98879205 -4 8 C-2.40351779 5.44460834 -1.1777547 2.77002641 0 0 Z " fill="#F23106" transform="translate(139,27)"/>
<path d="M0 0 C4.62 0 9.24 0 14 0 C14 17.49 14 34.98 14 53 C9.38 53 4.76 53 0 53 C0 35.51 0 18.02 0 0 Z " fill="#F23204" transform="translate(461,20)"/>
<path d="M0 0 C4.62 0 9.24 0 14 0 C14 17.49 14 34.98 14 53 C9.38 53 4.76 53 0 53 C0 35.51 0 18.02 0 0 Z M2 2 C2 18.5 2 35 2 52 C5.3 52 8.6 52 12 52 C12 35.5 12 19 12 2 C8.7 2 5.4 2 2 2 Z " fill="#F3543A" transform="translate(461,20)"/>
<path d="M0 0 C2.875 0.25 2.875 0.25 6 1 C8.70367058 5.06897931 8.53650904 9.28877997 8 14 C6.8125 17.0625 6.8125 17.0625 5 19 C2.5 19.5625 2.5 19.5625 0 19 C-2.95239027 15.94166271 -3.40952749 13.68933562 -3.375 9.5 C-3.38273437 8.5615625 -3.39046875 7.623125 -3.3984375 6.65625 C-2.94552484 3.63683226 -2.00855276 2.25297982 0 0 Z " fill="#FEF3F1" transform="translate(389,44)"/>
<path d="M0 0 C6.6 0 13.2 0 20 0 C20 0.33 20 0.66 20 1 C14.06 1 8.12 1 2 1 C2 7.93 2 14.86 2 22 C2.66 22 3.32 22 4 22 C4 16.72 4 11.44 4 6 C4.33 6 4.66 6 5 6 C5 11.94 5 17.88 5 24 C3.35 24 1.7 24 0 24 C0 16.08 0 8.16 0 0 Z " fill="#F2361B" transform="translate(31,44)"/>
<path d="M0 0 C-0.875 6.875 -0.875 6.875 -2 8 C-4.33297433 8.04092937 -6.66705225 8.04241723 -9 8 C-9.6875 5.6875 -9.6875 5.6875 -10 3 C-7.7638263 -1.05306482 -4.16821004 -0.23593642 0 0 Z " fill="#FEF5F4" transform="translate(439,56)"/>
<path d="M0 0 C0.22223194 2.74086056 0.34781139 4.43963721 -1.125 6.8125 C-3.80231137 8.50813053 -5.90089373 8.2694875 -9 8 C-10 7 -10 7 -10.25 4.5625 C-10.1675 3.716875 -10.085 2.87125 -10 2 C-6.3558226 -0.4294516 -4.28758728 -0.16179575 0 0 Z " fill="#FEF4F3" transform="translate(351,56)"/>
<path d="M0 0 C3.125 0.25 3.125 0.25 5 1.5625 C6.125 3.25 6.125 3.25 6.125 6.25 C2.165 6.25 -1.795 6.25 -5.875 6.25 C-3.49662162 0.30405405 -3.49662162 0.30405405 0 0 Z " fill="#FEF4F3" transform="translate(181.875,42.75)"/>
<path d="M0 0 C0 3 0 3 -2 5.1875 C-2.66 5.785625 -3.32 6.38375 -4 7 C-4.66 6.67 -5.32 6.34 -6 6 C-2.25 1.125 -2.25 1.125 0 0 Z " fill="#F23A1D" transform="translate(171,36)"/>
</svg>
